<?xml version="1.0" encoding="UTF-8"?><svg id="Capa_2" xmlns="http://www.w3.org/2000/svg" xmlns:xlink="http://www.w3.org/1999/xlink" viewBox="0 0 770 302"><defs><style>.cls-1{stroke:url(#Degradado_sin_nombre_7);}.cls-1,.cls-2,.cls-3{fill:none;stroke-miterlimit:10;}.cls-1,.cls-3{stroke-width:1.34px;}.cls-2{stroke:#919191;}.cls-3{stroke:#ff9e00;}.cls-4{fill:#999;}.cls-4,.cls-5,.cls-6{stroke-width:0px;}.cls-5{fill:#919191;}.cls-6{fill:#ff9e00;}</style><linearGradient id="Degradado_sin_nombre_7" x1="104.33" y1="140.1" x2="265.49" y2="140.1" gradientUnits="userSpaceOnUse"><stop offset="0" stop-color="#0075cd"/><stop offset="1" stop-color="#00c7f9"/></linearGradient></defs><g id="Capa_1-2"><path class="cls-1" d="M222.73,103.14v62.47M200.75,57.99h-70.01l-25.74,25.25v126.52h58.41M105.46,83.29h25.52v-25.06M124.55,209.76v18.63h54.04M242.28,102.51v72.3M214.73,179.88v-13.28c0-4.9-3.97-8.86-8.86-8.86h0c-4.9,0-8.86,3.97-8.86,8.86v7.52s0-43.23,0-43.23c0-5.6-4.54-10.14-10.14-10.14h0c-5.6,0-10.14,4.54-10.14,10.14v30.11l-8.95,7.04c-3.42,2.69-5.42,6.8-5.42,11.15v25.24c0,3.76,1.49,7.37,4.15,10.03l9.57,9.57c1.57,1.57,2.46,3.71,2.46,5.93v10.4M237.56,243.26v-16.18c0-3.07,1.22-6.01,3.39-8.18l2.95-2.95c2.94-2.94,4.59-6.92,4.59-11.07v-23.11c0-3.96-3.21-7.17-7.17-7.17h-2.06c-7.33,0-7.17,6.59-7.17,10.55v-3.38l.23-6.94c.16-4.97-3.82-9.09-8.79-9.09h0c-4.86,0-8.8,3.94-8.8,8.8v5.34M176.71,161v25.54M118.11,110.65h92.44M118.34,125.83h50.82M118.34,95.48h70.13M118.34,141.01h50.59M118.34,156.18h50.59M118.34,171.36h37.25M118.34,186.54h37.25M231.48,37.61c-18.41,0-33.34,14.93-33.34,33.34s14.93,33.34,33.34,33.34,33.34-14.93,33.34-33.34-14.93-33.34-33.34-33.34Z"/><path class="cls-3" d="M235.82,91.65c1.22.06,2.35.14,3.4.22.08-.17.13-.36.13-.57v-.63c0-.46-.23-.73-.69-.82-1.26-.25-2.16-.52-2.71-.82-.55-.29-.82-.75-.82-1.38v-17.93c0-1.34.06-2.39.19-3.15.13-.75.19-1.36.19-1.82,0-.63-.34-.94-1.01-.94-.34,0-.99.11-1.95.31-.97.21-1.97.38-3.02.5-.46.04-.97.08-1.51.13-.55.04-1.09.07-1.64.09-.55.02-1.06.04-1.54.06-.48.02-.85.03-1.1.03-.08.17-.13.35-.13.53v.47c0,.59.27.92.82,1.01,1.55.13,2.54.53,2.96,1.2.42.67.63,1.64.63,2.89v16.61c0,.63-.25,1.09-.76,1.38-.5.29-1.43.57-2.77.82-.17.04-.33.12-.47.22-.15.11-.22.3-.22.6,0,.38.04.78.13,1.2,1.09-.08,2.22-.16,3.4-.22,1.17-.06,2.58-.09,4.21-.09s3.06.03,4.28.09Z"/><path class="cls-3" d="M228.24,57.93c.86.86,1.94,1.29,3.24,1.29s2.43-.43,3.27-1.29c.84-.86,1.26-1.96,1.26-3.3s-.42-2.44-1.26-3.3c-.84-.86-1.93-1.29-3.27-1.29s-2.38.43-3.24,1.29c-.86.86-1.29,1.96-1.29,3.3s.43,2.44,1.29,3.3Z"/><path class="cls-4" d="M295.54,123.06h4.75v17.86c-2.19,1.92-4.77,3.39-7.76,4.42-2.99,1.03-6.13,1.54-9.43,1.54-4.68,0-8.9-1.03-12.65-3.08-3.75-2.05-6.69-4.89-8.83-8.53-2.14-3.64-3.21-7.7-3.21-12.21s1.07-8.57,3.21-12.21c2.14-3.63,5.08-6.48,8.83-8.53,3.75-2.05,7.98-3.08,12.71-3.08,3.57,0,6.85.57,9.83,1.71,2.99,1.14,5.51,2.82,7.56,5.05l-3.08,3.14c-3.7-3.66-8.41-5.49-14.12-5.49-3.79,0-7.22.84-10.27,2.51-3.06,1.67-5.45,3.99-7.19,6.96-1.74,2.97-2.61,6.28-2.61,9.94s.87,6.96,2.61,9.9c1.74,2.94,4.12,5.26,7.16,6.96,3.03,1.7,6.44,2.54,10.24,2.54,4.82,0,8.9-1.2,12.24-3.61v-15.79Z"/><path class="cls-4" d="M344.98,111.28v35.19h-4.55v-6.42c-1.25,2.14-2.97,3.8-5.15,4.98-2.19,1.18-4.68,1.77-7.49,1.77-4.59,0-8.22-1.28-10.87-3.85-2.65-2.56-3.98-6.32-3.98-11.27v-20.41h4.75v19.94c0,3.7.91,6.51,2.74,8.43,1.83,1.92,4.44,2.88,7.83,2.88,3.7,0,6.62-1.13,8.76-3.38,2.14-2.25,3.21-5.39,3.21-9.4v-18.47h4.75Z"/><path class="cls-4" d="M365.52,97.5h6.36l-10.84,8.3h-4.68l9.17-8.3ZM358.3,111.28h4.75v35.19h-4.75v-35.19Z"/><path class="cls-4" d="M399.18,114.46c2.45,2.3,3.68,5.7,3.68,10.2v21.81h-4.55v-5.49c-1.07,1.83-2.64,3.26-4.72,4.28-2.07,1.03-4.54,1.54-7.39,1.54-3.93,0-7.05-.94-9.37-2.81-2.32-1.87-3.48-4.35-3.48-7.43s1.08-5.4,3.25-7.23c2.16-1.83,5.61-2.74,10.34-2.74h11.17v-2.14c0-3.03-.85-5.34-2.54-6.92-1.7-1.58-4.17-2.38-7.43-2.38-2.23,0-4.37.37-6.42,1.1-2.05.74-3.81,1.75-5.29,3.04l-2.14-3.55c1.78-1.52,3.92-2.69,6.42-3.51,2.5-.83,5.13-1.24,7.9-1.24,4.59,0,8.12,1.15,10.57,3.45ZM393.82,141.22c1.92-1.23,3.35-3,4.28-5.32v-5.75h-11.04c-6.02,0-9.03,2.1-9.03,6.29,0,2.05.78,3.67,2.34,4.85,1.56,1.18,3.75,1.77,6.56,1.77s4.97-.61,6.89-1.84Z"/><path class="cls-4" d="M465.41,96.83v49.64h-4.55v-6.96c-1.43,2.36-3.31,4.17-5.65,5.42-2.34,1.25-4.98,1.87-7.93,1.87-3.3,0-6.29-.76-8.97-2.27-2.68-1.52-4.77-3.63-6.29-6.36-1.52-2.72-2.27-5.82-2.27-9.3s.76-6.58,2.27-9.3c1.52-2.72,3.61-4.83,6.29-6.32,2.68-1.49,5.66-2.24,8.97-2.24,2.85,0,5.43.59,7.73,1.77,2.3,1.18,4.18,2.91,5.65,5.19v-21.14h4.75ZM454.34,140.89c1.98-1.14,3.55-2.75,4.68-4.85,1.14-2.1,1.71-4.48,1.71-7.16s-.57-5.06-1.71-7.16c-1.14-2.1-2.7-3.71-4.68-4.85-1.99-1.14-4.2-1.71-6.66-1.71s-4.74.57-6.72,1.71c-1.98,1.14-3.54,2.75-4.68,4.85-1.14,2.1-1.71,4.48-1.71,7.16s.57,5.06,1.71,7.16c1.14,2.1,2.7,3.71,4.68,4.85,1.98,1.14,4.23,1.71,6.72,1.71s4.67-.57,6.66-1.71Z"/><path class="cls-4" d="M509.3,130.35h-29.44c.27,3.66,1.67,6.61,4.21,8.87,2.54,2.25,5.75,3.38,9.63,3.38,2.18,0,4.19-.39,6.02-1.17,1.83-.78,3.41-1.93,4.75-3.45l2.68,3.08c-1.56,1.87-3.51,3.3-5.85,4.28-2.34.98-4.92,1.47-7.73,1.47-3.61,0-6.81-.77-9.6-2.31-2.79-1.54-4.96-3.67-6.52-6.39-1.56-2.72-2.34-5.8-2.34-9.23s.75-6.51,2.24-9.23c1.49-2.72,3.55-4.84,6.16-6.36,2.61-1.52,5.54-2.27,8.8-2.27s6.18.76,8.76,2.27c2.59,1.52,4.62,3.62,6.09,6.32,1.47,2.7,2.21,5.79,2.21,9.27l-.07,1.47ZM483.78,118.34c-2.3,2.16-3.6,4.98-3.91,8.46h24.96c-.31-3.48-1.62-6.3-3.91-8.46-2.3-2.16-5.16-3.25-8.6-3.25s-6.23,1.08-8.53,3.25Z"/><path class="cls-6" d="M289.1,182.92c3.84-1.88,8.51-2.82,14-2.82v10.94c-.63-.08-1.49-.12-2.59-.12-6.12,0-10.93,1.82-14.42,5.47-3.49,3.65-5.24,8.85-5.24,15.59v31.07h-11.3v-62.37h10.83v10.47c1.96-3.61,4.86-6.35,8.71-8.24Z"/><path class="cls-6" d="M372.54,215.63h-50.6c.71,5.49,3.12,9.91,7.24,13.24,4.12,3.34,9.24,5,15.36,5,7.45,0,13.45-2.51,18.01-7.53l6.24,7.3c-2.82,3.3-6.34,5.81-10.53,7.53-4.2,1.73-8.89,2.59-14.06,2.59-6.59,0-12.44-1.35-17.54-4.06-5.1-2.71-9.04-6.49-11.83-11.36-2.79-4.86-4.18-10.36-4.18-16.48s1.35-11.49,4.06-16.36c2.71-4.86,6.43-8.65,11.18-11.36,4.75-2.71,10.1-4.06,16.06-4.06s11.28,1.35,15.95,4.06c4.67,2.71,8.32,6.49,10.94,11.36,2.63,4.87,3.94,10.44,3.94,16.71,0,.86-.08,2-.24,3.41ZM328.35,194.57c-3.65,3.29-5.79,7.61-6.41,12.95h40.01c-.63-5.26-2.77-9.55-6.41-12.89-3.65-3.33-8.18-5-13.59-5s-9.94,1.65-13.59,4.94Z"/><path class="cls-6" d="M448.09,180.68v53.9c0,10.9-2.71,18.97-8.12,24.18-5.41,5.22-13.5,7.83-24.24,7.83-5.88,0-11.49-.81-16.83-2.41-5.34-1.61-9.65-3.9-12.95-6.88l5.41-8.71c2.9,2.51,6.49,4.49,10.77,5.94,4.28,1.45,8.69,2.18,13.24,2.18,7.3,0,12.69-1.73,16.18-5.18,3.49-3.45,5.24-8.71,5.24-15.77v-4.94c-2.67,3.22-5.94,5.63-9.83,7.24-3.88,1.61-8.1,2.41-12.65,2.41-5.96,0-11.36-1.27-16.18-3.83-4.83-2.55-8.61-6.12-11.36-10.71-2.75-4.59-4.12-9.83-4.12-15.71s1.37-11.12,4.12-15.71c2.75-4.59,6.53-8.14,11.36-10.65,4.83-2.51,10.22-3.77,16.18-3.77,4.71,0,9.08.86,13.12,2.59,4.04,1.73,7.36,4.28,9.94,7.65v-9.65h10.71ZM426.62,227.99c3.26-1.72,5.81-4.14,7.65-7.24,1.84-3.1,2.77-6.61,2.77-10.53,0-6.04-2-10.92-6-14.65-4-3.73-9.14-5.59-15.42-5.59s-11.53,1.86-15.53,5.59c-4,3.73-6,8.61-6,14.65,0,3.92.92,7.43,2.77,10.53,1.84,3.1,4.39,5.51,7.65,7.24,3.25,1.73,6.96,2.59,11.12,2.59s7.75-.86,11-2.59Z"/><path class="cls-6" d="M469.8,166.56c-1.45-1.41-2.18-3.14-2.18-5.18s.72-3.78,2.18-5.24c1.45-1.45,3.28-2.18,5.47-2.18s4.02.69,5.47,2.06c1.45,1.37,2.18,3.08,2.18,5.12s-.73,3.9-2.18,5.35c-1.45,1.45-3.28,2.18-5.47,2.18s-4.02-.71-5.47-2.12ZM469.63,180.68h11.3v62.37h-11.3v-62.37Z"/><path class="cls-6" d="M505.64,241.7c-4.71-1.37-8.4-3.12-11.06-5.24l4.71-8.94c2.75,1.96,6.08,3.53,10,4.71,3.92,1.18,7.88,1.77,11.89,1.77,9.89,0,14.83-2.82,14.83-8.47,0-1.88-.67-3.37-2-4.47-1.34-1.1-3-1.9-5-2.41-2-.51-4.85-1.08-8.53-1.71-5.02-.78-9.12-1.69-12.3-2.71-3.18-1.02-5.9-2.75-8.18-5.18-2.28-2.43-3.41-5.84-3.41-10.24,0-5.65,2.35-10.18,7.06-13.59,4.71-3.41,11.02-5.12,18.95-5.12,4.16,0,8.32.51,12.47,1.53,4.16,1.02,7.57,2.39,10.24,4.12l-4.82,8.94c-5.1-3.3-11.1-4.94-18.01-4.94-4.79,0-8.44.79-10.95,2.35-2.51,1.57-3.77,3.65-3.77,6.24,0,2.04.71,3.65,2.12,4.83s3.16,2.04,5.24,2.59c2.08.55,5,1.18,8.77,1.88,5.02.86,9.08,1.79,12.18,2.77,3.1.98,5.75,2.65,7.94,5,2.2,2.35,3.3,5.65,3.3,9.89,0,5.65-2.41,10.14-7.24,13.48-4.83,3.34-11.4,5-19.71,5-5.1,0-10-.69-14.71-2.06Z"/><path class="cls-6" d="M596.49,239.41c-1.65,1.41-3.69,2.49-6.12,3.24-2.43.75-4.94,1.12-7.53,1.12-6.28,0-11.14-1.69-14.59-5.06-3.45-3.37-5.18-8.2-5.18-14.48v-34.25h-10.59v-9.3h10.59v-13.65h11.3v13.65h17.89v9.3h-17.89v33.78c0,3.37.84,5.96,2.53,7.77,1.69,1.81,4.1,2.71,7.24,2.71,3.45,0,6.39-.98,8.83-2.94l3.53,8.12Z"/><path class="cls-6" d="M629.68,182.92c3.84-1.88,8.51-2.82,14-2.82v10.94c-.63-.08-1.49-.12-2.59-.12-6.12,0-10.93,1.82-14.42,5.47-3.49,3.65-5.24,8.85-5.24,15.59v31.07h-11.3v-62.37h10.83v10.47c1.96-3.61,4.86-6.35,8.71-8.24Z"/><path class="cls-6" d="M666.98,239.64c-4.94-2.75-8.81-6.53-11.59-11.36-2.79-4.83-4.18-10.3-4.18-16.42s1.39-11.59,4.18-16.42c2.78-4.83,6.65-8.59,11.59-11.3,4.94-2.71,10.51-4.06,16.71-4.06s11.75,1.35,16.65,4.06c4.9,2.71,8.75,6.47,11.53,11.3,2.78,4.83,4.18,10.3,4.18,16.42s-1.39,11.59-4.18,16.42c-2.79,4.83-6.63,8.61-11.53,11.36-4.9,2.75-10.46,4.12-16.65,4.12s-11.77-1.37-16.71-4.12ZM694.46,231.11c3.18-1.84,5.67-4.43,7.47-7.77,1.8-3.33,2.71-7.16,2.71-11.47s-.9-8.14-2.71-11.47c-1.81-3.33-4.29-5.9-7.47-7.71-3.18-1.8-6.77-2.71-10.77-2.71s-7.59.9-10.77,2.71c-3.18,1.81-5.69,4.38-7.53,7.71-1.84,3.34-2.77,7.16-2.77,11.47s.92,8.14,2.77,11.47c1.84,3.34,4.35,5.92,7.53,7.77,3.18,1.84,6.77,2.77,10.77,2.77s7.59-.92,10.77-2.77Z"/><polyline class="cls-2" points="8 191 8 301.5 769.5 301.5 769.5 .5 8 .5 8 140 71.26 140"/><rect class="cls-5" x="8" y="28.5" width="11" height="82"/><circle class="cls-6" cx="70.87" cy="141.2" r="8"/><circle class="cls-6" cx="8" cy="186.5" r="8"/><path class="cls-1" d="M222.73,103.14v62.47M200.75,57.99h-70.01l-25.74,25.25v126.52h58.41M105.46,83.29h25.52v-25.06M124.55,209.76v18.63h54.04M242.28,102.51v72.3M214.73,179.88v-13.28c0-4.9-3.97-8.86-8.86-8.86h0c-4.9,0-8.86,3.97-8.86,8.86v7.52s0-43.23,0-43.23c0-5.6-4.54-10.14-10.14-10.14h0c-5.6,0-10.14,4.54-10.14,10.14v30.11l-8.95,7.04c-3.42,2.69-5.42,6.8-5.42,11.15v25.24c0,3.76,1.49,7.37,4.15,10.03l9.57,9.57c1.57,1.57,2.46,3.71,2.46,5.93v10.4M237.56,243.26v-16.18c0-3.07,1.22-6.01,3.39-8.18l2.95-2.95c2.94-2.94,4.59-6.92,4.59-11.07v-23.11c0-3.96-3.21-7.17-7.17-7.17h-2.06c-7.33,0-7.17,6.59-7.17,10.55v-3.38l.23-6.94c.16-4.97-3.82-9.09-8.79-9.09h0c-4.86,0-8.8,3.94-8.8,8.8v5.34M176.71,161v25.54M118.11,110.65h92.44M118.34,125.83h50.82M118.34,95.48h70.13M118.34,141.01h50.59M118.34,156.18h50.59M118.34,171.36h37.25M118.34,186.54h37.25M231.48,37.61c-18.41,0-33.34,14.93-33.34,33.34s14.93,33.34,33.34,33.34,33.34-14.93,33.34-33.34-14.93-33.34-33.34-33.34Z"/><path class="cls-3" d="M235.82,91.65c1.22.06,2.35.14,3.4.22.08-.17.13-.36.13-.57v-.63c0-.46-.23-.73-.69-.82-1.26-.25-2.16-.52-2.71-.82-.55-.29-.82-.75-.82-1.38v-17.93c0-1.34.06-2.39.19-3.15.13-.75.19-1.36.19-1.82,0-.63-.34-.94-1.01-.94-.34,0-.99.11-1.95.31-.97.21-1.97.38-3.02.5-.46.04-.97.08-1.51.13-.55.04-1.09.07-1.64.09-.55.02-1.06.04-1.54.06-.48.02-.85.03-1.1.03-.08.17-.13.35-.13.53v.47c0,.59.27.92.82,1.01,1.55.13,2.54.53,2.96,1.2.42.67.63,1.64.63,2.89v16.61c0,.63-.25,1.09-.76,1.38-.5.29-1.43.57-2.77.82-.17.04-.33.12-.47.22-.15.11-.22.3-.22.6,0,.38.04.78.13,1.2,1.09-.08,2.22-.16,3.4-.22,1.17-.06,2.58-.09,4.21-.09s3.06.03,4.28.09Z"/><path class="cls-3" d="M228.24,57.93c.86.86,1.94,1.29,3.24,1.29s2.43-.43,3.27-1.29c.84-.86,1.26-1.96,1.26-3.3s-.42-2.44-1.26-3.3c-.84-.86-1.93-1.29-3.27-1.29s-2.38.43-3.24,1.29c-.86.86-1.29,1.96-1.29,3.3s.43,2.44,1.29,3.3Z"/><path class="cls-4" d="M295.54,123.06h4.75v17.86c-2.19,1.92-4.77,3.39-7.76,4.42-2.99,1.03-6.13,1.54-9.43,1.54-4.68,0-8.9-1.03-12.65-3.08-3.75-2.05-6.69-4.89-8.83-8.53-2.14-3.64-3.21-7.7-3.21-12.21s1.07-8.57,3.21-12.21c2.14-3.63,5.08-6.48,8.83-8.53,3.75-2.05,7.98-3.08,12.71-3.08,3.57,0,6.85.57,9.83,1.71,2.99,1.14,5.51,2.82,7.56,5.05l-3.08,3.14c-3.7-3.66-8.41-5.49-14.12-5.49-3.79,0-7.22.84-10.27,2.51-3.06,1.67-5.45,3.99-7.19,6.96-1.74,2.97-2.61,6.28-2.61,9.94s.87,6.96,2.61,9.9c1.74,2.94,4.12,5.26,7.16,6.96,3.03,1.7,6.44,2.54,10.24,2.54,4.82,0,8.9-1.2,12.24-3.61v-15.79Z"/><path class="cls-4" d="M344.98,111.28v35.19h-4.55v-6.42c-1.25,2.14-2.97,3.8-5.15,4.98-2.19,1.18-4.68,1.77-7.49,1.77-4.59,0-8.22-1.28-10.87-3.85-2.65-2.56-3.98-6.32-3.98-11.27v-20.41h4.75v19.94c0,3.7.91,6.51,2.74,8.43,1.83,1.92,4.44,2.88,7.83,2.88,3.7,0,6.62-1.13,8.76-3.38,2.14-2.25,3.21-5.39,3.21-9.4v-18.47h4.75Z"/><path class="cls-4" d="M365.52,97.5h6.36l-10.84,8.3h-4.68l9.17-8.3ZM358.3,111.28h4.75v35.19h-4.75v-35.19Z"/><path class="cls-4" d="M399.18,114.46c2.45,2.3,3.68,5.7,3.68,10.2v21.81h-4.55v-5.49c-1.07,1.83-2.64,3.26-4.72,4.28-2.07,1.03-4.54,1.54-7.39,1.54-3.93,0-7.05-.94-9.37-2.81-2.32-1.87-3.48-4.35-3.48-7.43s1.08-5.4,3.25-7.23c2.16-1.83,5.61-2.74,10.34-2.74h11.17v-2.14c0-3.03-.85-5.34-2.54-6.92-1.7-1.58-4.17-2.38-7.43-2.38-2.23,0-4.37.37-6.42,1.1-2.05.74-3.81,1.75-5.29,3.04l-2.14-3.55c1.78-1.52,3.92-2.69,6.42-3.51,2.5-.83,5.13-1.24,7.9-1.24,4.59,0,8.12,1.15,10.57,3.45ZM393.82,141.22c1.92-1.23,3.35-3,4.28-5.32v-5.75h-11.04c-6.02,0-9.03,2.1-9.03,6.29,0,2.05.78,3.67,2.34,4.85,1.56,1.18,3.75,1.77,6.56,1.77s4.97-.61,6.89-1.84Z"/><path class="cls-4" d="M465.41,96.83v49.64h-4.55v-6.96c-1.43,2.36-3.31,4.17-5.65,5.42-2.34,1.25-4.98,1.87-7.93,1.87-3.3,0-6.29-.76-8.97-2.27-2.68-1.52-4.77-3.63-6.29-6.36-1.52-2.72-2.27-5.82-2.27-9.3s.76-6.58,2.27-9.3c1.52-2.72,3.61-4.83,6.29-6.32,2.68-1.49,5.66-2.24,8.97-2.24,2.85,0,5.43.59,7.73,1.77,2.3,1.18,4.18,2.91,5.65,5.19v-21.14h4.75ZM454.34,140.89c1.98-1.14,3.55-2.75,4.68-4.85,1.14-2.1,1.71-4.48,1.71-7.16s-.57-5.06-1.71-7.16c-1.14-2.1-2.7-3.71-4.68-4.85-1.99-1.14-4.2-1.71-6.66-1.71s-4.74.57-6.72,1.71c-1.98,1.14-3.54,2.75-4.68,4.85-1.14,2.1-1.71,4.48-1.71,7.16s.57,5.06,1.71,7.16c1.14,2.1,2.7,3.71,4.68,4.85,1.98,1.14,4.23,1.71,6.72,1.71s4.67-.57,6.66-1.71Z"/><path class="cls-4" d="M509.3,130.35h-29.44c.27,3.66,1.67,6.61,4.21,8.87,2.54,2.25,5.75,3.38,9.63,3.38,2.18,0,4.19-.39,6.02-1.17,1.83-.78,3.41-1.93,4.75-3.45l2.68,3.08c-1.56,1.87-3.51,3.3-5.85,4.28-2.34.98-4.92,1.47-7.73,1.47-3.61,0-6.81-.77-9.6-2.31-2.79-1.54-4.96-3.67-6.52-6.39-1.56-2.72-2.34-5.8-2.34-9.23s.75-6.51,2.24-9.23c1.49-2.72,3.55-4.84,6.16-6.36,2.61-1.52,5.54-2.27,8.8-2.27s6.18.76,8.76,2.27c2.59,1.52,4.62,3.62,6.09,6.32,1.47,2.7,2.21,5.79,2.21,9.27l-.07,1.47ZM483.78,118.34c-2.3,2.16-3.6,4.98-3.91,8.46h24.96c-.31-3.48-1.62-6.3-3.91-8.46-2.3-2.16-5.16-3.25-8.6-3.25s-6.23,1.08-8.53,3.25Z"/><path class="cls-6" d="M289.1,182.92c3.84-1.88,8.51-2.82,14-2.82v10.94c-.63-.08-1.49-.12-2.59-.12-6.12,0-10.93,1.82-14.42,5.47-3.49,3.65-5.24,8.85-5.24,15.59v31.07h-11.3v-62.37h10.83v10.47c1.96-3.61,4.86-6.35,8.71-8.24Z"/><path class="cls-6" d="M372.54,215.63h-50.6c.71,5.49,3.12,9.91,7.24,13.24,4.12,3.34,9.24,5,15.36,5,7.45,0,13.45-2.51,18.01-7.53l6.24,7.3c-2.82,3.3-6.34,5.81-10.53,7.53-4.2,1.73-8.89,2.59-14.06,2.59-6.59,0-12.44-1.35-17.54-4.06-5.1-2.71-9.04-6.49-11.83-11.36-2.79-4.86-4.18-10.36-4.18-16.48s1.35-11.49,4.06-16.36c2.71-4.86,6.43-8.65,11.18-11.36,4.75-2.71,10.1-4.06,16.06-4.06s11.28,1.35,15.95,4.06c4.67,2.71,8.32,6.49,10.94,11.36,2.63,4.87,3.94,10.44,3.94,16.71,0,.86-.08,2-.24,3.41ZM328.35,194.57c-3.65,3.29-5.79,7.61-6.41,12.95h40.01c-.63-5.26-2.77-9.55-6.41-12.89-3.65-3.33-8.18-5-13.59-5s-9.94,1.65-13.59,4.94Z"/><path class="cls-6" d="M448.09,180.68v53.9c0,10.9-2.71,18.97-8.12,24.18-5.41,5.22-13.5,7.83-24.24,7.83-5.88,0-11.49-.81-16.83-2.41-5.34-1.61-9.65-3.9-12.95-6.88l5.41-8.71c2.9,2.51,6.49,4.49,10.77,5.94,4.28,1.45,8.69,2.18,13.24,2.18,7.3,0,12.69-1.73,16.18-5.18,3.49-3.45,5.24-8.71,5.24-15.77v-4.94c-2.67,3.22-5.94,5.63-9.83,7.24-3.88,1.61-8.1,2.41-12.65,2.41-5.96,0-11.36-1.27-16.18-3.83-4.83-2.55-8.61-6.12-11.36-10.71-2.75-4.59-4.12-9.83-4.12-15.71s1.37-11.12,4.12-15.71c2.75-4.59,6.53-8.14,11.36-10.65,4.83-2.51,10.22-3.77,16.18-3.77,4.71,0,9.08.86,13.12,2.59,4.04,1.73,7.36,4.28,9.94,7.65v-9.65h10.71ZM426.62,227.99c3.26-1.72,5.81-4.14,7.65-7.24,1.84-3.1,2.77-6.61,2.77-10.53,0-6.04-2-10.92-6-14.65-4-3.73-9.14-5.59-15.42-5.59s-11.53,1.86-15.53,5.59c-4,3.73-6,8.61-6,14.65,0,3.92.92,7.43,2.77,10.53,1.84,3.1,4.39,5.51,7.65,7.24,3.25,1.73,6.96,2.59,11.12,2.59s7.75-.86,11-2.59Z"/><path class="cls-6" d="M469.8,166.56c-1.45-1.41-2.18-3.14-2.18-5.18s.72-3.78,2.18-5.24c1.45-1.45,3.28-2.18,5.47-2.18s4.02.69,5.47,2.06c1.45,1.37,2.18,3.08,2.18,5.12s-.73,3.9-2.18,5.35c-1.45,1.45-3.28,2.18-5.47,2.18s-4.02-.71-5.47-2.12ZM469.63,180.68h11.3v62.37h-11.3v-62.37Z"/><path class="cls-6" d="M505.64,241.7c-4.71-1.37-8.4-3.12-11.06-5.24l4.71-8.94c2.75,1.96,6.08,3.53,10,4.71,3.92,1.18,7.88,1.77,11.89,1.77,9.89,0,14.83-2.82,14.83-8.47,0-1.88-.67-3.37-2-4.47-1.34-1.1-3-1.9-5-2.41-2-.51-4.85-1.08-8.53-1.71-5.02-.78-9.12-1.69-12.3-2.71-3.18-1.02-5.9-2.75-8.18-5.18-2.28-2.43-3.41-5.84-3.41-10.24,0-5.65,2.35-10.18,7.06-13.59,4.71-3.41,11.02-5.12,18.95-5.12,4.16,0,8.32.51,12.47,1.53,4.16,1.02,7.57,2.39,10.24,4.12l-4.82,8.94c-5.1-3.3-11.1-4.94-18.01-4.94-4.79,0-8.44.79-10.95,2.35-2.51,1.57-3.77,3.65-3.77,6.24,0,2.04.71,3.65,2.12,4.83s3.16,2.04,5.24,2.59c2.08.55,5,1.18,8.77,1.88,5.02.86,9.08,1.79,12.18,2.77,3.1.98,5.75,2.65,7.94,5,2.2,2.35,3.3,5.65,3.3,9.89,0,5.65-2.41,10.14-7.24,13.48-4.83,3.34-11.4,5-19.71,5-5.1,0-10-.69-14.71-2.06Z"/><path class="cls-6" d="M596.49,239.41c-1.65,1.41-3.69,2.49-6.12,3.24-2.43.75-4.94,1.12-7.53,1.12-6.28,0-11.14-1.69-14.59-5.06-3.45-3.37-5.18-8.2-5.18-14.48v-34.25h-10.59v-9.3h10.59v-13.65h11.3v13.65h17.89v9.3h-17.89v33.78c0,3.37.84,5.96,2.53,7.77,1.69,1.81,4.1,2.71,7.24,2.71,3.45,0,6.39-.98,8.83-2.94l3.53,8.12Z"/><path class="cls-6" d="M629.68,182.92c3.84-1.88,8.51-2.82,14-2.82v10.94c-.63-.08-1.49-.12-2.59-.12-6.12,0-10.93,1.82-14.42,5.47-3.49,3.65-5.24,8.85-5.24,15.59v31.07h-11.3v-62.37h10.83v10.47c1.96-3.61,4.86-6.35,8.71-8.24Z"/><path class="cls-6" d="M666.98,239.64c-4.94-2.75-8.81-6.53-11.59-11.36-2.79-4.83-4.18-10.3-4.18-16.42s1.39-11.59,4.18-16.42c2.78-4.83,6.65-8.59,11.59-11.3,4.94-2.71,10.51-4.06,16.71-4.06s11.75,1.35,16.65,4.06c4.9,2.71,8.75,6.47,11.53,11.3,2.78,4.83,4.18,10.3,4.18,16.42s-1.39,11.59-4.18,16.42c-2.79,4.83-6.63,8.61-11.53,11.36-4.9,2.75-10.46,4.12-16.65,4.12s-11.77-1.37-16.71-4.12ZM694.46,231.11c3.18-1.84,5.67-4.43,7.47-7.77,1.8-3.33,2.71-7.16,2.71-11.47s-.9-8.14-2.71-11.47c-1.81-3.33-4.29-5.9-7.47-7.71-3.18-1.8-6.77-2.71-10.77-2.71s-7.59.9-10.77,2.71c-3.18,1.81-5.69,4.38-7.53,7.71-1.84,3.34-2.77,7.16-2.77,11.47s.92,8.14,2.77,11.47c1.84,3.34,4.35,5.92,7.53,7.77,3.18,1.84,6.77,2.77,10.77,2.77s7.59-.92,10.77-2.77Z"/><polyline class="cls-2" points="8 191 8 301.5 769.5 301.5 769.5 .5 8 .5 8 140 71.26 140"/><rect class="cls-5" x="8" y="28.5" width="11" height="82"/><circle class="cls-6" cx="70.87" cy="141.2" r="8"/><circle class="cls-6" cx="8" cy="186.5" r="8"/></g></svg>