<?xml version="1.0" encoding="UTF-8"?><svg id="Capa_2" xmlns="http://www.w3.org/2000/svg" xmlns:xlink="http://www.w3.org/1999/xlink" viewBox="0 0 1034.97 262"><defs><style>.cls-1{stroke:#ff3d9c;}.cls-1,.cls-2{stroke-width:2px;}.cls-1,.cls-2,.cls-3{fill:none;stroke-miterlimit:10;}.cls-2{stroke:url(#Degradado_sin_nombre_7);}.cls-3{stroke:#909090;}.cls-4{fill:#909090;}.cls-4,.cls-5,.cls-6{stroke-width:0px;}.cls-5{fill:#989898;}.cls-6{fill:#ff3d9c;}</style><linearGradient id="Degradado_sin_nombre_7" x1="104" y1="134.94" x2="236.97" y2="134.94" gradientUnits="userSpaceOnUse"><stop offset="0" stop-color="#0075cc"/><stop offset="1" stop-color="#00c6f8"/></linearGradient></defs><g id="Capa_1-2"><path class="cls-2" d="M201.48,104.87v51.19M183.46,67.88h-57.37l-21.09,20.69v103.68h47.86M105.38,88.61h20.92v-20.54M121.02,192.24v15.26h44.28M217.49,104.36v59.25M194.92,167.76v-10.88c0-4.01-3.25-7.26-7.26-7.26h0c-4.01,0-7.26,3.25-7.26,7.26v6.17s0-35.43,0-35.43c0-4.59-3.72-8.31-8.31-8.31h0c-4.59,0-8.31,3.72-8.31,8.31v24.67l-7.34,5.77c-2.8,2.2-4.44,5.57-4.44,9.14v20.68c0,3.08,1.22,6.04,3.4,8.22l7.84,7.84c1.29,1.29,2.01,3.04,2.01,4.86v8.53M213.63,219.69v-13.26c0-2.51,1-4.92,2.78-6.7l2.42-2.42c2.41-2.41,3.76-5.67,3.76-9.07v-18.94c0-3.24-2.63-5.88-5.88-5.88h-1.69c-6.01,0-5.88,5.4-5.88,8.65v-2.77l.19-5.69c.13-4.07-3.13-7.45-7.21-7.45h0c-3.98,0-7.21,3.23-7.21,7.21v4.38M163.77,152.29v20.93M115.74,111.03h75.75M115.93,123.47h41.64M115.93,98.59h57.47M115.93,135.9h41.46M115.93,148.34h41.46M115.93,160.78h30.53M115.93,173.21h30.53M208.64,51.18c-15.09,0-27.32,12.23-27.32,27.32s12.23,27.32,27.32,27.32,27.32-12.23,27.32-27.32-12.23-27.32-27.32-27.32Z"/><path class="cls-1" d="M212.2,95.46c1,.05,1.92.11,2.78.18.07-.14.1-.29.1-.46v-.52c0-.38-.19-.6-.57-.67-1.03-.21-1.77-.43-2.22-.67-.45-.24-.67-.62-.67-1.13v-14.69c0-1.1.05-1.96.15-2.58.1-.62.15-1.12.15-1.5,0-.52-.28-.77-.83-.77-.28,0-.81.09-1.6.26-.79.17-1.62.31-2.47.41-.38.03-.79.07-1.24.1-.45.03-.89.06-1.34.08-.45.02-.87.03-1.26.05-.4.02-.7.03-.9.03-.07.14-.1.28-.1.44v.39c0,.48.22.76.67.82,1.27.1,2.08.43,2.42.98.34.55.52,1.34.52,2.37v13.61c0,.52-.21.89-.62,1.13-.41.24-1.17.46-2.27.67-.14.03-.27.1-.39.18-.12.09-.18.25-.18.49,0,.31.03.64.1.98.89-.07,1.82-.13,2.78-.18.96-.05,2.11-.08,3.45-.08s2.51.03,3.51.08Z"/><path class="cls-1" d="M205.99,67.83c.7.7,1.59,1.06,2.65,1.06s1.99-.35,2.68-1.06c.69-.7,1.03-1.61,1.03-2.71s-.34-2-1.03-2.71c-.69-.7-1.58-1.06-2.68-1.06s-1.95.35-2.65,1.06c-.7.7-1.06,1.61-1.06,2.71s.35,2,1.06,2.71Z"/><path class="cls-5" d="M295.54,143.06h4.75v17.86c-2.19,1.92-4.77,3.39-7.76,4.42-2.99,1.03-6.13,1.54-9.43,1.54-4.68,0-8.9-1.03-12.65-3.08-3.75-2.05-6.69-4.89-8.83-8.53-2.14-3.64-3.21-7.7-3.21-12.21s1.07-8.57,3.21-12.21c2.14-3.63,5.08-6.48,8.83-8.53,3.75-2.05,7.98-3.08,12.71-3.08,3.57,0,6.85.57,9.83,1.71,2.99,1.14,5.51,2.82,7.56,5.05l-3.08,3.14c-3.7-3.66-8.41-5.49-14.12-5.49-3.79,0-7.22.84-10.27,2.51-3.06,1.67-5.45,3.99-7.19,6.96-1.74,2.97-2.61,6.28-2.61,9.94s.87,6.96,2.61,9.9c1.74,2.94,4.12,5.26,7.16,6.96,3.03,1.7,6.44,2.54,10.24,2.54,4.82,0,8.9-1.2,12.24-3.61v-15.79Z"/><path class="cls-5" d="M344.98,131.28v35.19h-4.55v-6.42c-1.25,2.14-2.97,3.8-5.15,4.98-2.19,1.18-4.68,1.77-7.49,1.77-4.59,0-8.22-1.28-10.87-3.85-2.65-2.56-3.98-6.32-3.98-11.27v-20.41h4.75v19.94c0,3.7.91,6.51,2.74,8.43,1.83,1.92,4.44,2.88,7.83,2.88,3.7,0,6.62-1.13,8.76-3.38,2.14-2.25,3.21-5.39,3.21-9.4v-18.47h4.75Z"/><path class="cls-5" d="M365.52,117.5h6.36l-10.84,8.3h-4.68l9.17-8.3ZM358.3,131.28h4.75v35.19h-4.75v-35.19Z"/><path class="cls-5" d="M399.18,134.46c2.45,2.3,3.68,5.7,3.68,10.2v21.81h-4.55v-5.49c-1.07,1.83-2.64,3.26-4.72,4.28-2.07,1.03-4.54,1.54-7.39,1.54-3.93,0-7.05-.94-9.37-2.81-2.32-1.87-3.48-4.35-3.48-7.43s1.08-5.4,3.25-7.23c2.16-1.83,5.61-2.74,10.34-2.74h11.17v-2.14c0-3.03-.85-5.34-2.54-6.92-1.7-1.58-4.17-2.38-7.43-2.38-2.23,0-4.37.37-6.42,1.1-2.05.74-3.81,1.75-5.29,3.04l-2.14-3.55c1.78-1.52,3.92-2.69,6.42-3.51,2.5-.83,5.13-1.24,7.9-1.24,4.59,0,8.12,1.15,10.57,3.45ZM393.82,161.22c1.92-1.23,3.35-3,4.28-5.32v-5.75h-11.04c-6.02,0-9.03,2.1-9.03,6.29,0,2.05.78,3.67,2.34,4.85,1.56,1.18,3.75,1.77,6.56,1.77s4.97-.61,6.89-1.84Z"/><path class="cls-5" d="M465.41,116.83v49.64h-4.55v-6.96c-1.43,2.36-3.31,4.17-5.65,5.42-2.34,1.25-4.98,1.87-7.93,1.87-3.3,0-6.29-.76-8.97-2.27-2.68-1.52-4.77-3.63-6.29-6.36-1.52-2.72-2.27-5.82-2.27-9.3s.76-6.58,2.27-9.3c1.52-2.72,3.61-4.83,6.29-6.32,2.68-1.49,5.66-2.24,8.97-2.24,2.85,0,5.43.59,7.73,1.77,2.3,1.18,4.18,2.91,5.65,5.19v-21.14h4.75ZM454.34,160.89c1.98-1.14,3.55-2.75,4.68-4.85,1.14-2.1,1.71-4.48,1.71-7.16s-.57-5.06-1.71-7.16c-1.14-2.1-2.7-3.71-4.68-4.85-1.99-1.14-4.2-1.71-6.66-1.71s-4.74.57-6.72,1.71c-1.98,1.14-3.54,2.75-4.68,4.85-1.14,2.1-1.71,4.48-1.71,7.16s.57,5.06,1.71,7.16c1.14,2.1,2.7,3.71,4.68,4.85,1.98,1.14,4.23,1.71,6.72,1.71s4.67-.57,6.66-1.71Z"/><path class="cls-5" d="M509.3,150.35h-29.44c.27,3.66,1.67,6.61,4.21,8.87,2.54,2.25,5.75,3.38,9.63,3.38,2.18,0,4.19-.39,6.02-1.17,1.83-.78,3.41-1.93,4.75-3.45l2.68,3.08c-1.56,1.87-3.51,3.3-5.85,4.28-2.34.98-4.92,1.47-7.73,1.47-3.61,0-6.81-.77-9.6-2.31-2.79-1.54-4.96-3.67-6.52-6.39-1.56-2.72-2.34-5.8-2.34-9.23s.75-6.51,2.24-9.23c1.49-2.72,3.55-4.84,6.16-6.36,2.61-1.52,5.54-2.27,8.8-2.27s6.18.76,8.76,2.27c2.59,1.52,4.62,3.62,6.09,6.32,1.47,2.7,2.21,5.79,2.21,9.27l-.07,1.47ZM483.78,138.34c-2.3,2.16-3.6,4.98-3.91,8.46h24.96c-.31-3.48-1.62-6.3-3.91-8.46-2.3-2.16-5.16-3.25-8.6-3.25s-6.23,1.08-8.53,3.25Z"/><polyline class="cls-3" points="8 171 8 261.5 1034.47 261.5 1034.47 .5 8 .5 8 120 71.26 120"/><rect class="cls-4" x="8" y="28.5" width="11" height="62"/><circle class="cls-6" cx="70.87" cy="121.2" r="8"/><circle class="cls-6" cx="8" cy="166.5" r="8"/><path class="cls-6" d="M551.1,107.92c3.84-1.88,8.51-2.82,14-2.82v10.94c-.63-.08-1.49-.12-2.59-.12-6.12,0-10.93,1.82-14.42,5.47-3.49,3.65-5.24,8.85-5.24,15.59v31.07h-11.3v-62.37h10.83v10.47c1.96-3.61,4.86-6.35,8.71-8.24Z"/><path class="cls-6" d="M634.54,140.63h-50.6c.71,5.49,3.12,9.91,7.24,13.24,4.12,3.34,9.24,5,15.36,5,7.45,0,13.45-2.51,18.01-7.53l6.24,7.3c-2.82,3.3-6.34,5.81-10.53,7.53-4.2,1.73-8.89,2.59-14.06,2.59-6.59,0-12.44-1.35-17.54-4.06-5.1-2.71-9.04-6.49-11.83-11.36-2.79-4.86-4.18-10.36-4.18-16.48s1.35-11.49,4.06-16.36c2.71-4.86,6.43-8.65,11.18-11.36,4.75-2.71,10.1-4.06,16.06-4.06s11.28,1.35,15.95,4.06c4.67,2.71,8.32,6.49,10.94,11.36,2.63,4.87,3.94,10.44,3.94,16.71,0,.86-.08,2-.24,3.41ZM590.35,119.57c-3.65,3.29-5.79,7.61-6.41,12.95h40.01c-.63-5.26-2.77-9.55-6.41-12.89-3.65-3.33-8.18-5-13.59-5s-9.94,1.65-13.59,4.94Z"/><path class="cls-6" d="M710.09,105.68v53.9c0,10.9-2.71,18.97-8.12,24.18-5.41,5.22-13.5,7.83-24.24,7.83-5.88,0-11.49-.81-16.83-2.41-5.34-1.61-9.65-3.9-12.95-6.88l5.41-8.71c2.9,2.51,6.49,4.49,10.77,5.94,4.28,1.45,8.69,2.18,13.24,2.18,7.3,0,12.69-1.73,16.18-5.18,3.49-3.45,5.24-8.71,5.24-15.77v-4.94c-2.67,3.22-5.94,5.63-9.83,7.24-3.88,1.61-8.1,2.41-12.65,2.41-5.96,0-11.36-1.27-16.18-3.83-4.83-2.55-8.61-6.12-11.36-10.71-2.75-4.59-4.12-9.83-4.12-15.71s1.37-11.12,4.12-15.71c2.75-4.59,6.53-8.14,11.36-10.65,4.83-2.51,10.22-3.77,16.18-3.77,4.71,0,9.08.86,13.12,2.59,4.04,1.73,7.36,4.28,9.94,7.65v-9.65h10.71ZM688.62,152.99c3.26-1.72,5.81-4.14,7.65-7.24,1.84-3.1,2.77-6.61,2.77-10.53,0-6.04-2-10.92-6-14.65-4-3.73-9.14-5.59-15.42-5.59s-11.53,1.86-15.53,5.59c-4,3.73-6,8.61-6,14.65,0,3.92.92,7.43,2.77,10.53,1.84,3.1,4.39,5.51,7.65,7.24,3.25,1.73,6.96,2.59,11.12,2.59s7.75-.86,11-2.59Z"/><path class="cls-6" d="M731.8,91.56c-1.45-1.41-2.18-3.14-2.18-5.18s.72-3.78,2.18-5.24c1.45-1.45,3.28-2.18,5.47-2.18s4.02.69,5.47,2.06c1.45,1.37,2.18,3.08,2.18,5.12s-.73,3.9-2.18,5.35c-1.45,1.45-3.28,2.18-5.47,2.18s-4.02-.71-5.47-2.12ZM731.63,105.68h11.3v62.37h-11.3v-62.37Z"/><path class="cls-6" d="M767.64,166.7c-4.71-1.37-8.4-3.12-11.06-5.24l4.71-8.94c2.75,1.96,6.08,3.53,10,4.71,3.92,1.18,7.88,1.77,11.89,1.77,9.89,0,14.83-2.82,14.83-8.47,0-1.88-.67-3.37-2-4.47-1.34-1.1-3-1.9-5-2.41-2-.51-4.85-1.08-8.53-1.71-5.02-.78-9.12-1.69-12.3-2.71-3.18-1.02-5.9-2.75-8.18-5.18-2.28-2.43-3.41-5.84-3.41-10.24,0-5.65,2.35-10.18,7.06-13.59,4.71-3.41,11.02-5.12,18.95-5.12,4.16,0,8.32.51,12.47,1.53,4.16,1.02,7.57,2.39,10.24,4.12l-4.82,8.94c-5.1-3.3-11.1-4.94-18.01-4.94-4.79,0-8.44.79-10.95,2.35-2.51,1.57-3.77,3.65-3.77,6.24,0,2.04.71,3.65,2.12,4.83s3.16,2.04,5.24,2.59c2.08.55,5,1.18,8.77,1.88,5.02.86,9.08,1.79,12.18,2.77,3.1.98,5.75,2.65,7.94,5,2.2,2.35,3.3,5.65,3.3,9.89,0,5.65-2.41,10.14-7.24,13.48-4.83,3.34-11.4,5-19.71,5-5.1,0-10-.69-14.71-2.06Z"/><path class="cls-6" d="M858.49,164.41c-1.65,1.41-3.69,2.49-6.12,3.24-2.43.75-4.94,1.12-7.53,1.12-6.28,0-11.14-1.69-14.59-5.06-3.45-3.37-5.18-8.2-5.18-14.48v-34.25h-10.59v-9.3h10.59v-13.65h11.3v13.65h17.89v9.3h-17.89v33.78c0,3.37.84,5.96,2.53,7.77,1.69,1.81,4.1,2.71,7.24,2.71,3.45,0,6.39-.98,8.83-2.94l3.53,8.12Z"/><path class="cls-6" d="M891.68,107.92c3.84-1.88,8.51-2.82,14-2.82v10.94c-.63-.08-1.49-.12-2.59-.12-6.12,0-10.93,1.82-14.42,5.47-3.49,3.65-5.24,8.85-5.24,15.59v31.07h-11.3v-62.37h10.83v10.47c1.96-3.61,4.86-6.35,8.71-8.24Z"/><path class="cls-6" d="M928.98,164.64c-4.94-2.75-8.81-6.53-11.59-11.36-2.79-4.83-4.18-10.3-4.18-16.42s1.39-11.59,4.18-16.42c2.78-4.83,6.65-8.59,11.59-11.3,4.94-2.71,10.51-4.06,16.71-4.06s11.75,1.35,16.65,4.06c4.9,2.71,8.75,6.47,11.53,11.3,2.78,4.83,4.18,10.3,4.18,16.42s-1.39,11.59-4.18,16.42c-2.79,4.83-6.63,8.61-11.53,11.36-4.9,2.75-10.46,4.12-16.65,4.12s-11.77-1.37-16.71-4.12ZM956.46,156.11c3.18-1.84,5.67-4.43,7.47-7.77,1.8-3.33,2.71-7.16,2.71-11.47s-.9-8.14-2.71-11.47c-1.81-3.33-4.29-5.9-7.47-7.71-3.18-1.8-6.77-2.71-10.77-2.71s-7.59.9-10.77,2.71c-3.18,1.81-5.69,4.38-7.53,7.71-1.84,3.34-2.77,7.16-2.77,11.47s.92,8.14,2.77,11.47c1.84,3.34,4.35,5.92,7.53,7.77,3.18,1.84,6.77,2.77,10.77,2.77s7.59-.92,10.77-2.77Z"/></g></svg>